<?xml version="1.0" encoding="UTF-8" standalone="no"?>
<!-- Created with Inkscape (http://www.inkscape.org/) -->

<svg
   width="51.935143mm"
   height="44.779091mm"
   viewBox="0 0 51.935143 44.779091"
   version="1.1"
   id="svg1"
   xml:space="preserve"
   inkscape:version="1.3.2 (091e20e, 2023-11-25, custom)"
   sodipodi:docname="disco voador.svg"
   xmlns:inkscape="http://www.inkscape.org/namespaces/inkscape"
   xmlns:sodipodi="http://sodipodi.sourceforge.net/DTD/sodipodi-0.dtd"
   xmlns="http://www.w3.org/2000/svg"
   xmlns:svg="http://www.w3.org/2000/svg"><sodipodi:namedview
     id="namedview1"
     pagecolor="#ffffff"
     bordercolor="#000000"
     borderopacity="0"
     inkscape:showpageshadow="2"
     inkscape:pageopacity="0.0"
     inkscape:pagecheckerboard="0"
     inkscape:deskcolor="#d1d1d1"
     inkscape:document-units="mm"
     inkscape:zoom="0.35355339"
     inkscape:cx="1084.7018"
     inkscape:cy="1047.9322"
     inkscape:window-width="1920"
     inkscape:window-height="986"
     inkscape:window-x="-11"
     inkscape:window-y="-11"
     inkscape:window-maximized="1"
     inkscape:current-layer="layer1" /><defs
     id="defs1" /><g
     inkscape:label="Camada 1"
     inkscape:groupmode="layer"
     id="layer1"
     transform="translate(-22.53254,-241.23384)"><g
       id="g11"
       transform="translate(-101.02788,30.096342)"
       inkscape:export-filename="svg\discoVoador.svg"
       inkscape:export-xdpi="96"
       inkscape:export-ydpi="96"><path
         id="path7-9"
         style="fill:#b40bb4;fill-opacity:1"
         d="m 162.40447,243.7969 c -4.20886,1.19085 -8.6391,1.65106 -12.98732,1.65106 -4.28385,0 -8.6445,-0.45172 -12.79715,-1.603 l 0.20671,0.21394 c 0.37912,0.39237 0.85936,0.78936 1.3193,1.09089 0.17462,0.11448 0.32978,0.2184 0.34468,0.231 l 0.0274,0.0227 1.42306,0.75402 c 0.0101,0 0.19784,0.0738 0.41703,0.16382 2.20488,0.90484 4.60626,1.42026 7.45329,1.5999 l 0.56379,0.0357 h 1.1126 1.11104 l 0.56431,-0.0357 c 2.7579,-0.17337 5.29935,-0.70922 7.28689,-1.53634 0.26047,-0.10839 0.50127,-0.20593 0.53537,-0.21653 l 0.062,-0.0191 0.002,0.004 1.33946,-0.66973 c 0,0 0.0651,-0.0737 0.0698,-0.0899 8.3e-4,-0.003 0.0831,-0.0569 0.185,-0.11937 0.10186,-0.0625 0.36805,-0.24945 0.59118,-0.41497 l 0.40566,-0.30075 0.42323,-0.42117 z"
         sodipodi:nodetypes="cccscsscccccccccsccccsscccc" /><path
         style="fill:#fd5d12;fill-opacity:1"
         d="m 136.49417,243.65693 c -0.22337,-0.16632 -0.79985,-0.24131 -0.79985,-0.24131 -6.82634,-2.05945 -11.23203,-5.51357 -12.0341,-9.4349 l -0.0794,-0.38806 -0.0102,-1.37583 -0.0102,-1.37583 0.0516,-0.41258 0.0516,-0.41257 0.10346,-0.40125 c 0.795,-3.08332 3.98242,-5.91486 8.96278,-7.96207 l 0.41183,-0.16929 -0.0984,0.42791 c -0.0541,0.23534 -0.13254,0.65015 -0.1743,0.92179 l -0.0759,0.49389 -0.0183,1.08445 -0.0183,1.08445 0.0412,0.62304 c 0.19296,2.91472 0.77964,4.0586 2.67271,5.21115 1.9612,1.19404 6.76352,2.15845 11.52924,2.31532 l 1.12889,0.0372 0.6791,-0.0272 0.67909,-0.0272 0.6791,0.0272 0.6791,0.0272 1.12889,-0.0372 c 4.70932,-0.15501 9.54692,-1.11808 11.48291,-2.286 1.93146,-1.16519 2.5239,-2.31409 2.719,-5.2728 l 0.0413,-0.62705 -0.0184,-1.06628 -0.0184,-1.06628 -0.0714,-0.45972 c -0.0647,-0.41682 -0.23112,-1.22301 -0.27724,-1.34319 l -0.0186,-0.0483 0.42116,0.17312 c 4.98971,2.05106 8.17657,4.88052 8.97211,7.96591 l 0.10346,0.40125 0.0516,0.41257 0.0516,0.41258 -0.01,1.37583 -0.01,1.37583 -0.0934,0.44173 -0.0934,0.44172 -0.14318,0.41524 c -1.21139,3.51316 -7.22081,6.88136 -11.78111,8.52416 -8.61505,3.10348 -19.70974,3.29022 -26.78765,0.24137 z m 7.47168,-2.78208 0.28222,-0.0675 0.25606,-0.12572 0.25607,-0.12573 0.25765,-0.20474 0.25765,-0.20475 0.16937,-0.22531 c 0.20961,-0.27884 0.37643,-0.60598 0.48448,-0.95007 l 0.0826,-0.26306 -9.9e-4,-0.49389 -9.8e-4,-0.49389 -0.064,-0.2293 c -0.0858,-0.30733 -0.26825,-0.67217 -0.47964,-0.95898 l -0.17379,-0.23578 -0.24002,-0.19907 -0.24003,-0.19908 -0.3175,-0.15485 -0.3175,-0.15485 -0.24694,-0.0598 -0.24695,-0.0598 h -0.40569 -0.4057 l -0.24694,0.0598 -0.24695,0.0598 -0.3175,0.15485 -0.3175,0.15485 -0.24002,0.19908 -0.24003,0.19907 -0.17378,0.23578 c -0.20802,0.28223 -0.39399,0.65169 -0.47383,0.94134 l -0.0583,0.21166 -0.0202,0.38989 -0.0202,0.38988 0.06,0.29803 0.06,0.29804 0.15096,0.3175 0.15096,0.3175 0.16881,0.22276 0.16881,0.22277 0.23343,0.18741 c 0.29989,0.24078 0.55296,0.38047 0.89809,0.49569 l 0.27663,0.0924 0.27018,0.0275 c 0.3501,0.0357 0.66046,0.0144 1.01102,-0.0694 z m 12.4123,6.7e-4 0.27675,-0.0668 0.25242,-0.12307 c 0.13883,-0.0677 0.35753,-0.20275 0.486,-0.30012 l 0.23357,-0.17704 0.18137,-0.22109 0.18136,-0.22108 0.13716,-0.26458 c 0.0754,-0.14552 0.17162,-0.37571 0.21374,-0.51153 l 0.0766,-0.24694 0.02,-0.38875 0.02,-0.38875 -0.0602,-0.29917 -0.0602,-0.29917 -0.15096,-0.3175 -0.15096,-0.3175 -0.17044,-0.22493 -0.17044,-0.22494 -0.23179,-0.19228 -0.23179,-0.19228 -0.3175,-0.15485 -0.3175,-0.15485 -0.24694,-0.0601 -0.24695,-0.0601 -0.42333,0.002 -0.42333,0.002 -0.2747,0.0736 -0.2747,0.0736 -0.27211,0.14188 c -0.35646,0.18587 -0.63091,0.4051 -0.87004,0.69501 l -0.19423,0.23548 -0.14061,0.28513 c -0.0773,0.15683 -0.16682,0.38039 -0.19887,0.49681 l -0.0583,0.21166 -0.0173,0.42334 -0.0173,0.42333 0.0756,0.3175 0.0756,0.3175 0.12211,0.24729 c 0.0672,0.136 0.20658,0.35825 0.3098,0.49389 l 0.18769,0.2466 0.20917,0.16998 c 0.28248,0.22954 0.601,0.40398 0.92649,0.50739 l 0.27047,0.0859 0.26458,0.0271 c 0.34404,0.0352 0.65701,0.0135 0.99994,-0.0692 z m -22.78397,-3.36239 c 0.15522,-0.0508 0.40128,-0.15836 0.54681,-0.23897 l 0.26458,-0.14657 0.29986,-0.30341 0.29986,-0.30341 0.11834,-0.20183 c 0.16816,-0.28679 0.28334,-0.58842 0.34224,-0.89629 l 0.051,-0.26628 v -0.28061 -0.28061 l -0.0557,-0.27191 c -0.0716,-0.34928 -0.21042,-0.67911 -0.4159,-0.98819 l -0.16346,-0.24588 -0.22817,-0.21344 -0.22818,-0.21345 -0.24605,-0.14617 c -0.86986,-0.51678 -1.95476,-0.51555 -2.83606,0.003 l -0.25379,0.14939 -0.28223,0.28687 -0.28222,0.28687 -0.11834,0.20057 c -0.1609,0.2727 -0.28157,0.581 -0.34608,0.88424 l -0.0539,0.25323 0.0173,0.42333 0.0173,0.42334 0.0778,0.24694 c 0.0428,0.13582 0.14303,0.37395 0.22272,0.52917 l 0.14489,0.28222 0.33666,0.33666 0.33666,0.33666 0.28222,0.14403 c 0.29386,0.14996 0.53111,0.23725 0.7964,0.293 l 0.1561,0.0328 0.45861,-0.0115 0.45861,-0.0116 z m 33.40806,0.0136 c 0.13582,-0.043 0.37394,-0.14336 0.52916,-0.22305 l 0.28223,-0.14489 0.33666,-0.33666 0.33666,-0.33666 0.14488,-0.28222 c 0.0797,-0.15522 0.17992,-0.39335 0.22273,-0.52917 l 0.0778,-0.24694 0.0173,-0.42334 0.0173,-0.42333 -0.0539,-0.25323 c -0.0645,-0.30324 -0.18518,-0.61154 -0.34608,-0.88424 l -0.11834,-0.20057 -0.28223,-0.28687 -0.28222,-0.28687 -0.25379,-0.14939 c -0.88045,-0.51826 -1.9663,-0.51993 -2.83412,-0.004 l -0.24411,0.14503 -0.21753,0.20139 -0.21754,0.2014 -0.16895,0.24059 -0.16896,0.24058 -0.11054,0.26553 -0.11054,0.26553 -0.0506,0.26467 -0.0506,0.26467 v 0.27601 0.27602 l 0.051,0.26628 c 0.0589,0.30787 0.17408,0.6095 0.34224,0.89629 l 0.11834,0.20183 0.29986,0.30305 0.29986,0.30306 0.2401,0.13323 c 0.28843,0.16006 0.53365,0.25657 0.81823,0.32201 l 0.21167,0.0487 0.45861,-0.0129 0.45861,-0.0129 z"
         id="path5-6-7"
         sodipodi:nodetypes="ssscccccssccsccccscccccccscccccccsscccccccsssccccccsscccsscccccccccccccccsccccccccccscccccccssccccscccccccccccccccccccssccsccccccscsscscccscccscccccscccsccccsscccsscccsscccccscccssccccscccscccccccccccccscccsscccc" /><path
         d="m 132.781,231.89138 c -0.11739,0.002 -0.23424,0.0113 -0.34987,0.025 -0.40293,0.049 -0.80182,0.19657 -1.15262,0.39818 -0.32533,0.18695 -0.60888,0.44774 -0.847,0.7364 -1.76116,2.13499 0.13546,5.38901 2.8344,5.0459 2.66177,-0.33837 3.63522,-3.74219 1.62472,-5.47376 -0.3129,-0.26949 -0.67566,-0.46431 -1.06879,-0.58854 -0.33307,-0.10533 -0.6887,-0.1509 -1.04084,-0.14321 z"
         style="fill:#fff104;fill-opacity:1;stroke:none;stroke-width:1.12649"
         id="path10-3" /><path
         d="m 143.36431,235.0664 c -0.11739,0.002 -0.23424,0.0113 -0.34987,0.025 -0.40293,0.049 -0.80182,0.19657 -1.15262,0.39818 -0.32533,0.18695 -0.60888,0.44774 -0.847,0.7364 -1.76116,2.13499 0.13546,5.38901 2.8344,5.0459 2.66177,-0.33837 3.63522,-3.74219 1.62472,-5.47376 -0.3129,-0.26949 -0.67566,-0.46431 -1.06879,-0.58854 -0.33307,-0.10533 -0.6887,-0.1509 -1.04084,-0.14321 z"
         style="fill:#fff104;fill-opacity:1;stroke:none;stroke-width:1.12649"
         id="path9-7" /><path
         d="m 155.53513,235.0664 c -0.11739,0.002 -0.23424,0.0113 -0.34987,0.025 -0.40293,0.049 -0.80182,0.19657 -1.15262,0.39818 -0.32533,0.18695 -0.60888,0.44774 -0.847,0.7364 -1.76116,2.13499 0.13546,5.38901 2.8344,5.0459 2.66177,-0.33837 3.63522,-3.74219 1.62472,-5.47376 -0.3129,-0.26949 -0.67566,-0.46431 -1.06879,-0.58854 -0.33307,-0.10533 -0.6887,-0.1509 -1.04084,-0.14321 z"
         style="fill:#fff104;fill-opacity:1;stroke:none;stroke-width:1.12649"
         id="path8-0" /><path
         id="path6-1"
         style="fill:#bfd8f0;fill-opacity:1;stroke-width:1.00323"
         d="m 148.02301,211.1375 -0.58427,0.0632 c -2.06828,0.22519 -4.19027,0.70812 -6.03403,1.37332 l -0.49562,0.17886 -0.4246,0.20841 c -1.47106,0.72218 -2.92188,1.73227 -4.05725,2.82389 l -0.41214,0.39608 -0.36239,0.42149 c -1.17654,1.36873 -2.02214,2.91893 -2.53721,4.65137 l -0.13167,0.44274 c 0.006,-0.003 0.0127,-0.006 0.0192,-0.009 -0.0232,0.57465 -0.22672,1.15853 -0.29343,1.73416 -0.17243,1.48858 -0.10158,3.09223 0.16175,4.56584 0.1352,0.75665 0.34,1.55184 0.83363,2.15875 1.10245,1.35542 2.65953,1.99188 4.28847,2.45736 2.1584,0.61678 4.38374,0.97259 6.6183,1.16233 1.62463,0.13793 3.22349,0.10601 4.84837,0.12287 3.43938,0.0358 6.8701,-0.15428 10.22815,-0.97777 2.03376,-0.49874 4.32006,-1.11506 5.58506,-2.94158 0.50899,-0.73492 0.67215,-1.67992 0.79009,-2.54808 0.26103,-1.92145 0.17252,-3.83393 -0.24988,-5.72039 h -0.0259 l -0.13427,-0.45104 c -0.0738,-0.24818 -0.22241,-0.68204 -0.33024,-0.96428 l -0.19597,-0.51324 -0.25921,-0.53088 -0.25922,-0.53088 -0.29551,-0.47903 c -1.26177,-2.04456 -3.05671,-3.66669 -5.57418,-5.03708 -1.6421,-0.89389 -4.50653,-1.66544 -7.40683,-1.99441 l -0.5485,-0.0622 -1.38058,-5.2e-4 z m 7.53488,2.8773 0.25093,0.0124 0.25041,0.0129 0.4588,0.29705 c 0.60334,0.39051 1.51044,1.01439 1.91509,1.31734 l 0.3235,0.24211 0.75639,0.75276 0.7564,0.75225 0.45466,0.53087 c 0.54862,0.64034 0.87328,1.06793 1.17632,1.54959 l 0.22759,0.36135 0.29655,0.6019 c 0.16298,0.33091 0.38023,0.79291 0.48317,1.02649 l 0.18715,0.4246 0.001,0.22966 10e-4,0.23018 -0.0669,0.13687 -0.0664,0.13686 -0.12131,0.11769 -0.1208,0.11717 -0.16278,0.0555 -0.16175,0.056 -0.14412,-0.004 c -0.0793,-0.002 -0.19732,-0.0207 -0.26233,-0.0414 l -0.11872,-0.0378 -0.15605,-0.14412 -0.15604,-0.14464 -0.30018,-0.66878 c -0.78032,-1.73672 -1.56453,-2.79455 -3.26612,-4.40615 l -0.5008,-0.47437 -0.29344,-0.21099 c -0.16133,-0.11605 -0.69428,-0.47956 -1.18462,-0.80772 l -0.8917,-0.59671 -0.099,-0.16901 -0.0995,-0.16901 10e-4,-0.24782 0.001,-0.2478 0.0767,-0.1462 0.0773,-0.14568 0.11665,-0.0985 c 0.0641,-0.0541 0.17126,-0.12114 0.23848,-0.14931 z m -22.60309,7.68678 c -0.0153,0 -0.36593,0.14476 -0.77921,0.32142 l 0.7983,-0.3214 z m 30.01149,1.98507 0.1379,0.0213 c 0.0757,0.0117 0.19499,0.05 0.26492,0.085 l 0.12701,0.0632 0.11406,0.13013 c 0.15422,0.17564 0.16611,0.21315 0.32713,1.02442 l 0.1405,0.70818 0.003,0.22966 0.003,0.23019 -0.0534,0.1239 c -0.0294,0.0681 -0.0962,0.17419 -0.14826,0.23589 l -0.0944,0.1125 -0.14983,0.0705 -0.14879,0.0705 -0.14152,0.0177 -0.14154,0.0172 -0.12391,-0.0254 c -0.0681,-0.0141 -0.17407,-0.0523 -0.23536,-0.0845 l -0.11146,-0.0586 -0.12288,-0.1436 -0.12338,-0.14412 -0.0368,-0.14879 c -0.0201,-0.082 -0.0939,-0.45976 -0.16434,-0.83934 l -0.12805,-0.69004 0.001,-0.19804 0.001,-0.19805 0.0825,-0.15604 0.0825,-0.15553 0.14619,-0.11198 0.1462,-0.11198 0.17316,-0.0368 z"
         sodipodi:nodetypes="ccccscccccccsssscsssccccccccsscccccccccccccccscccccccccccccccscccccccccccscsccscccccccccccccccccsccccsccccccccc" /><path
         d="m 166.01186,232.12113 c -0.10421,0.002 -0.20794,0.01 -0.31058,0.0222 -0.35769,0.0435 -0.71179,0.1745 -1.0232,0.35347 -0.2888,0.16596 -0.54051,0.39746 -0.75189,0.65371 -1.5634,1.89526 0.12025,4.78389 2.51613,4.47931 2.36289,-0.30038 3.22703,-3.32199 1.44229,-4.85913 -0.27777,-0.23923 -0.5998,-0.41217 -0.94878,-0.52245 -0.29567,-0.0935 -0.61137,-0.13396 -0.92397,-0.12713 z"
         style="fill:#fff104;fill-opacity:1;stroke:none"
         id="path1-0" /><path
         d="m 137.35638,255.84257 c -0.24095,-0.0521 -0.60445,-0.20283 -0.81832,-0.33943 l -0.20473,-0.13076 -0.22333,-0.23313 -0.22332,-0.23312 -0.15672,-0.3175 -0.15673,-0.3175 -0.0556,-0.26458 -0.0556,-0.26459 0.0178,-0.3175 0.0178,-0.3175 0.0988,-0.29901 0.0988,-0.29901 0.17053,-0.25497 0.17053,-0.25496 0.21904,-0.19829 0.21904,-0.19829 0.28964,-0.14357 0.28964,-0.14357 0.0179,-0.14486 c 0.01,-0.0797 0.0354,-0.33536 0.0567,-0.56819 0.0766,-0.8346 0.23033,-1.89305 0.33822,-2.32833 0.19951,-0.80493 0.60603,-1.99461 0.89122,-2.60812 l 0.14646,-0.31507 -0.0271,-0.0229 c -0.0234,-0.0153 1.4459,0.77663 1.45041,0.77663 0.0427,0 -0.33737,0.69409 -0.51678,1.21709 -0.43348,1.26368 -0.56321,1.93519 -0.74641,3.8638 l -0.0152,0.15964 0.25691,0.13225 0.2569,0.13226 0.21529,0.19482 0.2153,0.19483 0.17159,0.25656 0.1716,0.25656 0.10326,0.31506 0.10325,0.31505 -0.002,0.4057 -10e-4,0.40569 -0.0634,0.21167 c -0.0349,0.11641 -0.12636,0.33297 -0.20327,0.48123 l -0.13984,0.26956 -0.21855,0.22815 -0.21856,0.22814 -0.20787,0.13277 -0.20787,0.13277 -0.28602,0.10574 -0.28601,0.10575 -0.4057,0.0118 -0.40569,0.0118 z"
         style="fill:#000000;fill-opacity:1"
         id="path1-7-1"
         sodipodi:nodetypes="cscccccccccccccccccccsscssscccccccccccccscccccccccc" /><path
         style="fill:#000000;fill-opacity:1"
         d="m 160.48343,245.39821 c 0,0.003 0.0868,0.20031 0.19294,0.43774 0.22323,0.49949 0.52681,1.36394 0.72783,2.07253 l 0.14012,0.49389 0.0865,0.51153 c 0.10596,0.62652 0.17674,1.17779 0.22873,1.78153 0.0217,0.25224 0.0467,0.50774 0.0554,0.56778 l 0.016,0.10917 0.29047,0.14398 0.29047,0.14398 0.21904,0.19829 0.21903,0.19829 0.17053,0.25496 0.17053,0.25497 0.0976,0.29523 0.0976,0.29524 0.0198,0.286 0.0198,0.286 -0.0566,0.29794 -0.0566,0.29795 -0.12329,0.25962 -0.12329,0.25961 -0.15789,0.20091 c -0.27843,0.3543 -0.60208,0.58637 -1.0596,0.75979 l -0.28345,0.10745 -0.47625,0.002 -0.47625,0.002 -0.24695,-0.0817 -0.24694,-0.0817 -0.24599,-0.14498 -0.24599,-0.14499 -0.23772,-0.24104 -0.23771,-0.24104 -0.16093,-0.32597 -0.16092,-0.32598 -0.0556,-0.26458 -0.0556,-0.26459 0.0186,-0.3175 0.0186,-0.3175 0.0762,-0.24694 c 0.0419,-0.13582 0.1328,-0.35013 0.202,-0.47625 l 0.12582,-0.22931 0.26793,-0.26556 0.26794,-0.26557 0.2732,-0.14013 0.2732,-0.14013 -0.016,-0.10583 c -0.009,-0.0582 -0.0259,-0.23283 -0.038,-0.38805 -0.12904,-1.65991 -0.51003,-3.23577 -1.07779,-4.45802 l -0.13714,-0.29524 -0.0621,0.0194"
         id="path5-7-3"
         sodipodi:nodetypes="ccscssccccccccccccccccsscccccccccccccccsscccccccscc" /><path
         id="path11-0-0"
         style="fill:#000000;fill-opacity:1;stroke-width:0.264583"
         d="m 175.49551,233.04177 c 0,0 5e-5,0 0,0 z m 0,0 -0.0868,0.41289 -0.0935,0.44184 -0.14314,0.41496 c -1.21139,3.51316 -7.2209,6.88123 -11.78119,8.52403 -8.61505,3.10348 -18.20454,2.70491 -26.78752,0.24133 -4.68801,-1.3456 -8.42917,-3.70858 -11.52713,-6.95539 -0.72391,-0.75869 -1.22616,-2.34914 -1.49717,-2.76682 -0.0107,0.32516 0.0946,0.69025 0.18152,1.04695 1.16714,6.02857 14.69312,11.7694 24.93352,12.11588 7.16624,0.0204 13.50542,-0.95452 20.74137,-5.65806 2.73269,-1.77631 5.63281,-4.26663 6.06009,-7.81761 z"
         sodipodi:nodetypes="ccccccssacccscc" /></g></g></svg>
